<?xml version="1.0" encoding="UTF-8"?>
<svg id="Layer_1" xmlns="http://www.w3.org/2000/svg" version="1.1" viewBox="0 0 640 640">
  <!-- Generator: Adobe Illustrator 30.0.0, SVG Export Plug-In . SVG Version: 2.1.1 Build 123)  -->
  <defs>
    <style>
      .st0 {
        fill: #cf0a2e;
      }
    </style>
  </defs>
  <path class="st0" d="M320.2,112c114.8.1,207.8,93.2,207.8,208,0,22.1-3.4,43.4-9.8,63.4-2,.4-4.1.6-6.2.6h-2.7c-8.5,0-16.6-3.4-22.6-9.4l-29.3-29.3c-6-6-9.4-14.1-9.4-22.6v-50.7c0-8.8,7.2-16,16-16s16-7.2,16-16-7.2-16-16-16h-24c-13.3,0-24,10.7-24,24s-10.7,24-24,24h-56c-8.8,0-16,7.2-16,16s-7.2,16-16,16h-25.4c-12.5,0-22.6-10.1-22.6-22.6,0-6,2.4-11.8,6.6-16l70.1-70.1c2.1-2.1,3.3-5,3.3-8,0-6.2-5.1-11.3-11.3-11.3h-14.1c-12.5,0-22.6-10.1-22.6-22.6,0-6,2.4-11.8,6.6-16l23.1-23.1c.8-.8,1.6-1.5,2.5-2.2v-.1ZM502.4,420.1c-32.8,59.6-93.9,101.4-165.2,107.2-.7-2.3-1.1-4.8-1.1-7.3,0-13.3-10.7-24-24-24h-26.7c-8.5,0-16.6-3.4-22.6-9.4l-29.3-29.3c-6-6-9.4-14.1-9.4-22.6v-66.7c0-17.7,14.3-32,32-32h98.7c8.5,0,16.6,3.4,22.6,9.4l29.3,29.3c6,6,14.1,9.4,22.6,9.4h5.5c8.5,0,16.6,3.4,22.6,9.4l16,16c4.2,4.2,10,6.6,16,6.6,4.8,0,9.3,1.5,13,4.1v-.1ZM320,576l26.2-1.3c-8.6.9-17.3,1.3-26.2,1.3ZM346.2,574.7c129.1-13.1,229.8-122.1,229.8-254.7,0-141.4-114.6-256-256-256h0c-141.4,0-256,114.6-256,256,0,127.5,93.2,233.3,215.3,252.8,13.2,2.1,26.8,3.2,40.7,3.2l26.2-1.3ZM251.3,187.3l-32,32c-6.2,6.2-16.4,6.2-22.6,0s-6.2-16.4,0-22.6l32-32c6.2-6.2,16.4-6.2,22.6,0s6.2,16.4,0,22.6Z"/>
</svg>