<?xml version="1.0" encoding="UTF-8"?><svg id="Layer_1" xmlns="http://www.w3.org/2000/svg" viewBox="0 0 100.31 100.33"><defs><style>.cls-1{fill:#7a0419;}</style></defs><path class="cls-1" d="M21.3,40.54c.07-.02.11-.04.13-.06.02-.02.03-.06.04-.11l.21-1.39s.51-.14,1.07-.3c.07-.03.14-.05.2-.07.94-.62,1.83.69,2.17.07-.27-.97-1.02-1.8-1.6-2.32-.04-.05-.08-.1-.13-.15-.62-.74-1.12-1.33-1.12-1.33-.05-.06-.09-.09-.12-.11-.03-.01-.07-.01-.13,0l-.3.08c-.06.02-.1.04-.12.07-.02.03-.04.08-.05.15l-.84,5.43s0,.07,0,.08c.02.07.07.09.15.06l.43-.12ZM22.13,35.76s.34.41.72.87c.04.05.09.1.13.16-.33.51,1.26.59.84,1.02,0,0-.08.02-.24.07-.18.26-.66.39-.72.2-.07.02-.14.04-.27.08-.45.12-.85.24-.85.24l.39-2.62Z"/><path class="cls-1" d="M28.27,38.59c.09-.02.14-.06.17-.11.03-.05.03-.11,0-.19l-.44-1.58,1.62-.45c.62-.17,1.04-.45,1.27-.82.23-.38.27-.83.12-1.36-.15-.53-.42-.9-.81-1.11-.39-.21-.89-.22-1.5-.05,0,0-.09.02-.25.06-.69.29-1.66.56-2.14.7.13.48.4,1.45.63,2.09.02.06.04.13.05.19.34,1.24.71,2.55.71,2.55.04.15.15.2.31.16l.25-.07ZM27.79,35.92c.52-.73-1.34-1.78.81-2.39.15-.04.26-.07.26-.07.38-.11.69-.09.92.04.24.13.41.39.51.77.1.37.09.68-.04.91-.13.24-.39.41-.77.51l-1.62.45s-.02-.09-.06-.23Z"/><path class="cls-1" d="M34.1,36.96c.09-.02.14-.06.17-.11.03-.05.03-.11,0-.19l-.44-1.58,1.62-.45c.62-.17,1.04-.45,1.27-.82.23-.38.27-.83.12-1.36-.02-.09-.05-.17-.09-.25-.64-.74-1.74-.95-2.68-.78-.09.03-.19.05-.29.08-.61.17-1.38.38-1.38.38-.16.05-.22.14-.18.3l1.31,4.7c.04.15.15.2.31.16l.25-.07ZM33.06,32.29s.41-.11.81-.23c.05-.01.1-.03.15-.04.64-.17,1.12-.3,1.6-.44.13.48.27.97.55,1.57,0,.08-.01.15-.03.22-.02.07-.04.13-.08.19-.13.24-.39.41-.77.51l-1.62.45-.62-2.24Z"/><path class="cls-1" d="M39.8,35.37l.25-.07c.09-.02.14-.06.17-.11.03-.05.03-.11,0-.19l-.51-1.83,1.65-.46,1.44,1.67s.07.08.11.09c.03,0,.08,0,.14-.01l.43-.12c.08-.02.11-.06.1-.13,0-.02-.02-.04-.04-.06l-1.5-1.72c.33-.22.56-.48.68-.78.13-.3.14-.63.04-.99-.14-.51-.41-.85-.8-1.03-.2-.09-.41-.13-.65-.14-.08,0-.16,0-.25,0-.75.25-1.71.52-2.48.65-.14.04-.23.06-.23.06-.16.05-.22.14-.18.3l1.31,4.7c.04.15.14.2.31.16ZM39.29,31.63c-.02-.06-.03-.13-.05-.19-.5-1.76,1.36-.72,1.91-1.34.08,0,.15,0,.21.02.07.01.13.03.18.06.23.11.39.34.48.69.1.35.07.64-.1.85-.16.21-.47.38-.91.5l-1.46.41s-.14-.5-.28-1Z"/><path class="cls-1" d="M44.79,31.2c.24.85.66,1.44,1.27,1.78.61.34,1.35.39,2.21.15.86-.24,1.46-.66,1.81-1.27.34-.61.4-1.33.16-2.18-.24-.85-.66-1.44-1.27-1.78-.06-.03-.12-.07-.19-.09-.86-.69-1.56.55-2.5.11-.08.03-.15.06-.22.1-.5.25-.87.58-1.11,1-.34.61-.4,1.33-.16,2.18ZM46.28,28.54c.06-.04.13-.07.22-.11.73-.08,1.21-.22,1.69-.35,1.24.7,1.02,1.8,1.45,2.76,0,.08,0,.15-.02.22-.03.21-.09.4-.18.57-.25.47-.69.79-1.32.96-.64.18-1.18.13-1.64-.14-.45-.27-.78-.76-.97-1.46-.2-.7-.17-1.29.08-1.75.15-.29.38-.53.69-.71Z"/><path class="cls-1" d="M52,27.25c-.07-.08-.13-.16-.19-.23-.17-.2-.27-.33-.27-.33-.04-.04-.07-.07-.11-.09-.04-.01-.09-.01-.16,0l-.42.12c-.08.02-.11.07-.09.14,0,.02.02.04.04.06,0,0,.27.32.65.78.04.04.07.09.11.13.55,1.23,2.27,1.79,2.88,3.37.03.02.07.02.13,0,1.11-.54.36-1.37.7-1.79.02-.07.03-.13.04-.19.24-1.59.56-3.71.56-3.71,0-.03,0-.06,0-.07-.02-.07-.07-.09-.15-.07l-.43.12c-.06.02-.11.04-.14.07-.03.03-.04.08-.05.13,0,0-.2,1.43-.38,2.68,0,.07-.02.14-.03.21.12.77.25,1.25-.71,1.52.08-1.58-1.5-1.66-1.96-2.87Z"/><path class="cls-1" d="M58.57,25.77c-.09-.31-.15-.55-.15-.55l2.88-.8c.09-.02.14-.06.17-.1.03-.04.03-.1,0-.19l-.04-.13c-.02-.08-.05-.12-.1-.14-.04-.02-.11-.02-.2,0l-3.38.94c-.16.05-.22.14-.18.3l1.31,4.7c.04.15.15.2.31.16,0,0,.07-.02.19-.05.12-.03.29-.08.49-.15.62-.42,1.59-.69,2.03-.55.2-.05.36-.1.48-.13l.19-.05c.09-.02.14-.06.17-.1.03-.04.03-.1,0-.17l-.04-.13c-.02-.08-.06-.13-.1-.16-.04-.02-.11-.02-.2,0,0,0-.18.05-.45.13-.09.03-.2.06-.31.09-.82.04-1.65.79-2.26.44-.13-.48-.27-.97-.4-1.45.48-.13,1.45-.4,1.96-.69.15-.04.26-.06.26-.06.09-.02.14-.06.17-.11.03-.05.03-.11.01-.18l-.03-.12c-.02-.08-.06-.12-.1-.15-.05-.02-.11-.02-.2,0,0,0-.1.03-.25.08-.63-.14-1.68,1.72-2.16-.34-.03-.11-.06-.22-.09-.32Z"/><path class="cls-1" d="M65.12,28.31c.07-.02.16-.04.25-.07.18-1.35,2.65.04,2.96-1.48.03-.05.07-.11.1-.17.28-.52.3-1.19.08-2-.25-.9-.68-1.49-1.28-1.76-.6-.27-1.35-.28-2.25-.03l-1.54.43c-.16.05-.22.14-.18.3l1.31,4.7c.04.15.15.2.31.16,0,0,.1-.03.24-.07ZM64.87,26.4c-.02-.06-.04-.12-.06-.18-.32-1.16-.72-2.59-.72-2.59l1.1-.31c.67-.19,1.21-.17,1.64.04.43.21.75.68.95,1.42.15.55.18,1.01.07,1.37-.02.06-.04.12-.06.17-.18.5-.66.63-1.45,1.01,0,0-.09.02-.21.05q-.93.1-1.26-.99Z"/><path class="cls-1" d="M22.14,78.62c.04-.13.1-.26.17-.37.29-.46.76-.79,1.43-.97.29-.08.57-.13.82-.13.25,0,.48.01.66.06.03.01.06.02.09,0,.03,0,.05-.03.06-.08l.1-.31s0-.06,0-.08c0-.03-.04-.05-.09-.06-.24-.07-.52-.09-.85-.07-.32.02-.66.08-1.01.17-.9.25-1.53.68-1.89,1.29-.14.24-.24.5-.29.79-.01.07-.02.15-.03.23.3,1.2.57,2.16,1.5,2.87.05.02.11.05.16.07,1.38.62,2.07-.62,3.33-.39.07-.04.14-.09.21-.14.13-.09.26-.19.37-.3.04-.03.06-.06.06-.1,0-.03,0-.08-.02-.15l-.58-2.08c-.02-.09-.06-.14-.11-.17-.05-.03-.12-.03-.22,0l-1.7.48c-.09.02-.14.06-.17.1-.03.04-.03.1,0,.17l.04.13c.02.08.05.13.1.15.04.03.11.03.2,0l1.26-.35.46,1.64c-.07.06-.15.11-.24.17-1.24.84-4.4.68-3.86-2.33.01-.07.03-.14.05-.21Z"/><path class="cls-1" d="M32.19,76.14c-.14-.51-.41-.85-.8-1.03-.39-.17-.87-.18-1.43-.03l-2.18.61c-.16.05-.22.14-.18.3l1.31,4.7c.04.15.15.2.31.16l.25-.07c-.69-.96.76-1.36.01-2.19.97-.27,1.45-.4,1.92.31.04.04.07.08.11.13.36.42.72.84.72.84.04.05.07.08.11.09.03,0,.08,0,.14-.01l.43-.12c.08-.02.11-.06.1-.13,0-.02-.02-.04-.04-.06l-1.5-1.72c.33-.22.56-.48.68-.78.12-.3.14-.63.04-.99ZM31.37,77.2c-.11.14-.28.26-.51.36-.06.03-.12.05-.19.08-.07.03-.15.06-.23.1,0,0-.05.02-.12.06-.61-.31-1.3.93-1.37.02-.02-.05-.03-.1-.07-.17-.16-.59-.43-1.53-.43-1.53l1.62-.45c.38-.11.69-.11.91,0,.23.11.39.34.48.69.1.35.07.64-.1.85Z"/><path class="cls-1" d="M35,74.28c.09-.03.19-.05.3-.08.85-.24,2.13-.6,2.13-.6.09-.02.14-.06.17-.1.03-.04.03-.1,0-.19l-.04-.13c-.02-.08-.05-.12-.1-.14-.04-.02-.11-.02-.2,0l-3.38.94c-.16.05-.22.14-.18.3,0,0,.04.13.1.35.03.08.06.17.1.26.83.14,1.1,1.11.52,1.93.02.07.03.14.05.2.29,1.03.55,1.96.55,1.96.04.15.15.2.31.16,0,0,1.1-.31,2.05-.57.06-.02.13-.04.19-.06q.66-.29,1.14-.42c-.27-.97-.97.27-1.6-.04-.06.02-.12.03-.18.05-.66.18-1.26.35-1.26.35,0,0-.19-.68-.33-1.2-.03-.1-.06-.2-.08-.28.23-1.11,1.46-.41,2.3-1.16-.75-.83-1.45.4-2.55.19.35-.62-.89-1.31-.01-1.72Z"/><path class="cls-1" d="M43.78,73.81c-.84-1-1.63-1.95-1.63-1.95-.05-.06-.09-.09-.12-.11-.03-.01-.07-.01-.13,0l-.3.08c-.06.02-.1.04-.12.07-.02.03-.04.08-.05.15l-.84,5.43s0,.07,0,.08c.02.07.07.09.15.06l.43-.12c.07-.02.11-.04.13-.06.02-.02.03-.06.04-.11l.21-1.39s.4-.11.88-.25c.06-.02.12-.03.19-.05,1.63-.15,1.49-.63,2.57.74,0,0,.11-.03.22-.06l.22-.06c.08-.02.11-.07.09-.13,0,0-.02-.03-.04-.07,0,0-.08-.09-.21-.26-.04-.05-.1-.11-.15-.18-.58-.26-1.33-1.09-1.4-1.67-.04-.05-.09-.11-.13-.16ZM43.73,74.95c-.24-.27-.72-.13-1.08.13-.06.02-.13.04-.19.05-.45.12-.85.24-.85.24l.39-2.62s.71.86,1.21,1.47c.05.06.09.11.13.16q.15.31.46.57s-.03,0-.07,0Z"/><path class="cls-1" d="M47.98,75.37c.04.15.15.2.31.16l.24-.07c.09-.02.14-.06.17-.11.03-.05.03-.11,0-.19,0,0-.43-1.54-.78-2.79-.02-.07-.04-.13-.06-.2.04-.29-.1-.77-.72-1.12q.48-.13.71-.36c.07-.02.13-.04.19-.05.43-.12.94-.26.94-.26.09-.02.14-.06.17-.1.03-.04.03-.1.01-.18l-.04-.13c-.02-.08-.06-.13-.1-.15-.05-.02-.12-.03-.2,0,0,0-.17.05-.44.12-.09.03-.19.05-.3.08-.11.27-.24-.21-.24-.21-.97.27-1.18,1.37-2.31.93-.09.03-.18.05-.24.06-.13.04-.21.06-.21.06-.09.02-.14.06-.17.1-.03.05-.03.11,0,.18l.04.13c.02.08.05.12.1.14.04.02.11.02.2,0l.11-.03s.08-.02.13-.04c1.53-.78,1.45.8,1.75,1.43.02.07.04.14.06.2.32,1.16.67,2.39.67,2.39Z"/><path class="cls-1" d="M56.59,72.97c.04.15.14.2.31.16l2.36-.66c.38-.11.68-.26.91-.46.23-.2.38-.43.45-.69.07-.26.06-.52-.01-.8-.17-.63-.61-.94-1.3-.95.22-.17.38-.37.46-.6.08-.24.09-.48.02-.72-.12-.41-.35-.71-.7-.87-.35-.17-.79-.18-1.32-.03,0,0-.1.03-.26.08-.82.47-1.92.25-2.26.87-.35.62.4,1.45.69,2.34.02.07.03.13.05.2.31,1.11.6,2.15.6,2.15ZM56.34,68.49c.48-.13.97-.27,1.5-.59.18-.05.33-.08.47-.08.14,0,.25.02.34.06.19.08.32.27.41.56.07.27.05.5-.08.7-.13.2-.35.34-.66.43,0,0-.25.07-.55.15-.05.01-.11.03-.16.04-1.2.8-1.12-.78-1.26-1.27ZM56.98,71.52c-.06-.23-.13-.46-.18-.63.21.02.08-.46.19-.37.16-.04.38-.1.6-.16.43-.12.86-.24.86-.24.37-.1.68-.1.93,0,.25.1.42.3.5.61.07.27.05.51-.07.73-.12.22-.36.37-.72.47l-1.86.52s-.13-.46-.26-.92Z"/><path class="cls-1" d="M66.12,66.68c-.14-.51-.41-.85-.8-1.03-.39-.17-.87-.18-1.43-.03l-2.18.61c-.16.05-.22.14-.18.3l1.31,4.7c.04.15.15.2.31.16l.25-.07c.09-.02.14-.06.17-.11.03-.05.03-.11,0-.19,0,0-.1-.35-.21-.75-.01-.06-.03-.12-.04-.18q.09-.45-.04-.93c.62.35,1.31-.89,1.74-.07.06.07.13.15.2.23.41.48.93,1.08.93,1.08.04.05.07.08.11.09.03,0,.08,0,.14-.01l.43-.12c.08-.02.11-.06.1-.13,0-.02-.02-.04-.04-.06l-1.5-1.72c.33-.22.56-.48.68-.78.13-.3.14-.63.04-.99ZM65.29,67.73c-.08.11-.2.2-.35.28-.05.03-.11.06-.17.08-.17.17-.65.31-.49.2,0,0-.05.02-.12.05-1.97.6-.92-1.25-1.71-1.38-.03-.09-.05-.17-.06-.23-.02-.05-.02-.09-.02-.09,0,0,.1-.03.25-.07s.36-.1.56-.15c.2-.06.41-.11.56-.16.15-.04.25-.07.25-.07.38-.11.69-.11.91,0,.23.11.39.34.48.69.1.35.07.64-.1.85Z"/><path class="cls-1" d="M68.43,64.77c-.03-.1-.04-.16-.04-.16-.02-.08-.06-.13-.1-.15-.05-.03-.12-.03-.2,0l-.25.07c-.16.05-.22.14-.18.3,0,0,.04.13.1.35.03.08.05.16.08.25.51,1.29.92,2.74,1.15,4.08.02.08.05.13.1.16,1.12-1.91-.74-2.95-.59-4.69-.02-.08-.04-.14-.05-.19Z"/><path class="cls-1" d="M73.44,63.55c.38-.1.75-.21.75-.21.09-.02.14-.06.17-.1.03-.04.03-.1.01-.18l-.04-.13c-.02-.08-.06-.13-.1-.15-.05-.02-.12-.03-.2,0l-3.74,1.04c-.09.02-.14.06-.17.1-.03.05-.03.11,0,.18l.04.13c.02.08.05.12.1.14.04.02.11.02.2,0l1.5-.42s.03.07.06.19c1.15,1.2.94,2.3,1.05,3.78.02.08.04.16.06.22.03.12.05.19.05.19.04.15.15.2.31.16l.24-.07c.09-.02.14-.06.17-.11.15-1.65-1.7-2.69-.82-4.66.11-.03.24-.07.36-.11Z"/><path class="cls-1" d="M79.45,63.86c-.84-1-1.63-1.95-1.63-1.95-.05-.06-.09-.09-.12-.11-.03-.01-.07-.01-.13,0l-.3.08c-.06.02-.1.04-.12.07-.02.03-.04.08-.05.15l-.84,5.43s0,.07,0,.08c.02.07.07.09.15.06l.43-.12c.07-.02.11-.04.13-.06.02-.02.03-.06.04-.11l.21-1.39s.16-.04.39-.11c.06-.02.11-.04.17-.06,1.45-1.13,2.47.67,3.29.55.11-.03.22-.06.22-.06.08-.02.11-.07.09-.13,0,0-.02-.03-.04-.07,0,0-.43-.52-.99-1.19-.04-.05-.08-.1-.12-.15.45-.48-1-.08-.65-.77-.04-.05-.09-.11-.13-.16ZM79.21,64.98s-.09.04-.2.07c-.27-.21-.75-.08-1.41.26-.1.03-.18.05-.24.07-.06.02-.09.02-.09.02l.39-2.62s.34.41.72.87c.05.06.09.12.13.17-.39.67,1.19.75.69,1.16Z"/><path class="cls-1" d="M83.26,65.53c.04.15.15.2.31.16l.25-.07c.09-.02.14-.06.17-.11.03-.05.03-.11,0-.19,0,0-.37-1.31-.71-2.55-.03-.11-.05-.18-.07-.24-.05-.49-.32-1.46-.45-1.94-.35.62-.7,1.24-.28,2.19.02.06.04.13.05.19.35,1.24.71,2.55.71,2.55Z"/><path class="cls-1" d="M89.32,58.77c-.02-.08-.06-.13-.1-.15-.05-.03-.12-.03-.2,0l-.25.07c-.16.05-.22.14-.18.3l1.07,3.85-4.18-3.09c-.05-.04-.1-.06-.14-.07-.04,0-.09,0-.16.02l-.24.07c-.17.05-.23.15-.19.3,0,0,.23.82.49,1.77.02.06.04.13.05.19.22.95.48,1.91.76,2.74.01.05.04.08.07.1.15-.11.28-.21.37-.32.09-.17.18-.32.26-.45.17-.59-.3-1.19-.63-1.85-.02-.07-.04-.13-.04-.23-.2-.72-.37-1.31-.37-1.31l4.19,3.08s.04.03.06.04c.06-.1.13-.22.23-.39-.02-.01-.05-.03-.07-.04.6-1.09-.1.39.15.08-.07.13-.13.26-.2.39.04,0,.08,0,.13-.01h.02c.15-.28.27-.48.35-.58l-1.25-4.49Z"/><path class="cls-1" d="M90.62,63.66s.03-.11,0-.19l-.03-.09c-.06.13-.12.27-.19.4h.04c.09-.03.14-.07.17-.12Z"/><path class="cls-1" d="M9.66,56.02s-1.24-.7-1.58-.08c.46,3.52,1.89,6.76,2.65,9.97.05.17.09.3.12.42.06.22.1.35.1.35.09.33.31.44.66.34,0,0,.14-.04.38-.11,2.44-1.29,4.77-.38,6.78-2.5-2.2-.43-4.35,1.21-6.52.79-.03-.1-.07-.23-.12-.38-.86-3.01-1.18-6.04-2.48-8.8Z"/><path class="cls-1" d="M23.59,62.87c.14.05.29.09.44.13,1.04.25,2.21.19,3.52-.17.19-.05.37-.11.54-.17.17-.06.36-.12.55-.18,2.96-.61,2.63-3.64,3.44-5.5,0-.17-.02-.35-.05-.52-.05-.35-.13-.7-.23-1.07-.51-1.83-1.42-3.11-2.74-3.85-1.31-.73-2.9-.84-4.76-.32-1.87.52-3.18,1.44-3.92,2.74-.45.78-.67,1.66-.66,2.64,0,.16,0,.35.01.52-.12,2.89,1.74,3.94,3.03,5.27.13.12.26.21.4.29.14.08.28.15.43.2ZM21.45,55.25c.04-.14.08-.28.13-.41.05-.13.11-.26.18-.39.53-1.01,1.49-1.7,2.86-2.09,1.37-.38,2.54-.28,3.51.31.85.51,1.5,1.38,1.93,2.61.06.17.12.36.17.55.49,1.09.41,2.67,0,3.64-.05.09-.1.19-.17.29-.33,1.08-.81,1.21-1.89,1.59-.14.07-.3.13-.45.19-.16.06-.32.11-.49.16-.69.19-1.33.26-1.92.21-.15-.01-.31-.04-.43-.06-3.27-.3-3.25-3.95-3.42-6.58Z"/><path class="cls-1" d="M45.41,50.23c-.57-2.05-1.06-3.82-1.06-3.82-.05-.16-.12-.27-.23-.33-.1-.06-.25-.06-.44-.01l-.54.15c-.35.1-.48.31-.39.64,0,0,.38,1.37.84,3,.04.13.07.25.11.38.15,1.44.69,3.37,1.09,4.82-2.61-1.88-4.86-4.37-7.79-5.87-.14-.11-.29-.21-.4-.29-.35-.26-.55-.41-.55-.41-.11-.09-.21-.14-.3-.15-.09-.02-.2,0-.34.03l-.53.15c-.36.1-.5.32-.41.64l2.83,10.14c.09.33.31.44.66.34l.54-.15c.19-.05.31-.13.37-.24.06-.1.07-.24.02-.4l-2.31-8.29s.09.07.25.19c.08.06.18.13.3.22,2.09.95,4.21,2.97,5.94,4.36.1.09.21.16.3.23.11.08.21.16.31.23.1.08.2.15.3.22.85,1.11,2.08,1.81,2.92,1.05.35-.62.56-1.72-.36-2.76-.09-.15-.18-.29-.26-.44-.55-1.02-.85-2.25-.78-3.21-.04-.14-.07-.29-.11-.43Z"/><path class="cls-1" d="M55.62,54.73c1.95-.54,3.33-1.4,4.13-2.57.24-.35.42-.74.54-1.16.04-.14.07-.29.1-.45.98-3.24-1.95-8.15-5.69-7.33-.17,0-.34.02-.52.04-.53.06-1.08.17-1.67.34,0,0-.21.06-.57.21-4.41.59-1.48,5.5-1.05,8.87.03.13.07.25.1.37.37,1.32.63,2.26.63,2.26.09.33.31.44.66.34l3.33-.93ZM52.8,53.36c-.05-.17-.1-.36-.16-.57-.8-2.3-1.96-4.58-1.67-7.27,0,0,.97-.27,1.99-.76.18-.05.36-.09.53-.13.4-.09.78-.13,1.14-.15.18,0,.38-.01.55,0,3.44.47,3.63,3.02,3.68,5.52-.01.16-.03.31-.05.45-.07.43-.21.8-.42,1.13-.56.87-1.55,1.51-2.99,1.91l-2.38.67s-.09-.31-.23-.81Z"/><path class="cls-1" d="M70.3,50.83c.18-.03.35-.06.55-.1,3.86-.37,4.98-3.81,4.79-7.58-.05-.18-.11-.36-.17-.53-.53-1.55-1.39-2.65-2.57-3.31-1.31-.73-2.9-.84-4.76-.32-1.87.52-3.18,1.44-3.92,2.74-.74,1.31-.86,2.88-.35,4.71.51,1.83,1.42,3.11,2.74,3.85,1.05.59,2.28.77,3.68.55ZM65.44,45.99c-.42-1.52-.37-2.78.16-3.78s1.49-1.7,2.86-2.09c1.37-.38,2.54-.28,3.51.31.73.44,1.31,1.14,1.73,2.1.07.16.14.36.2.53.28,1.71.68,3.16.06,4.2-.05.17-.11.36-.16.49-.48,1.43-2.07,1.35-3.25,1.82-.17.03-.34.06-.5.07-.96.11-1.8-.06-2.54-.5-.98-.59-1.68-1.64-2.1-3.15Z"/><path class="cls-1" d="M81.1,47.04c.05.14.11.25.19.31.39.01,1.36-.25,1.36-.25.06-1.19-.42-2.22-.8-3.36-.53.7-.41-.22-.9.36.35-.57.57-.81.73-.92-.06-.2-.1-.41-.14-.63-.03-.13-.06-.27-.06-.46-.54-1.94-1.05-3.76-1.05-3.76l1.82,1.34c.16-.4.37-.87.51-1.16.06.03.12.06.18.1-.17.29-.35.58-.61,1.08.04.02.07.04.11.06-.01.02-.02.03-.03.05l4.02,2.96c.06-.08.14-.19.23-.33-.08.15-.14.26-.18.36l.05.03c.18-.28.42-.63.32-.3-.08.14-.15.26-.22.37l.1.07c.08-.18.2-.43.38-.78.19-.16-.31.73-.27.79.23-.24.38-.72.61-1.13l-1.43-1.06c-.11.12-.27.36-.59.99-.03-.03.21-.47.35-.75.09-.18.12-.27.13-.32l-1.28-.95c-.31.22-.61.29-.43-.32l-4.29-3.17c-.11-.09-.21-.14-.3-.15-.09-.02-.2,0-.34.03l-.53.15c-.36.1-.5.32-.41.64,0,0,.63,2.26,1.3,4.65.05.17.09.33.13.47.1.44.22.92.34,1.4.45-.47.71-.39.95-.23-.37.39-.65.64-.83.66.24.91.5,1.83.74,2.65.12-.12.15-.01.21.01-.04.09-.09.17-.13.25.02.08.05.16.07.24Z"/><path class="cls-1" d="M87.51,41.89c-.17.41-.45.88-.66,1.16l.37.27c-.06-.37.19-.63.43-.51.2.55,0,.62-.29.61l.77.57c.08-.23.2-.27.23-.22.3-.58.37-.75.45-.92l-.51-.37c-.1.05-.21.1-.33.14.04-.1.08-.2.13-.3l-.59-.44Z"/><path class="cls-1" d="M88.67,44.33c.07.07.13.14.18.2l.61.45c.11.09.21.14.3.15s.19,0,.32-.03l.54-.15c.19-.05.31-.13.37-.24.06-.1.07-.24.02-.4,0,0-.14-.5-.36-1.28-.03-.1-.06-.2-.08-.31-.27-.69-.43-1.43-.59-2.2-.42.54-.75,1.21-1.28,1.68.07.24.12.43.15.55.05-.1.13-.23.27-.45-.06.19-.11.36-.22.62h0s0,0,0,0c-.09.21-.22.49-.44.9-.3.39-.1,0-.3.2l.45.33.05-.03ZM90.3,44.33c-.4.54-.94,1.12-.1-.52-.03.27-.11.62.1.52ZM89.99,43.23c-.14.34-.39.85-.73,1.48-.08-.3-.11-.32-.4-.21,1.1-2.02.35-.09,1.13-1.27Z"/><path class="cls-1" d="M87.48,37.88c.06-.05.13-.08.21-.11.06-.11.11-.21.17-.32.15-.13.09.05,0,.27,0,0,.01,0,.02,0,.25.45.13.7-.07.84.06.12.11.24.16.36h0c.2-.3.35-.44.37-.28-.15.25-.23.33-.32.42.1.26.18.51.23.77.05-.07.1-.15.15-.23-.18.36-.1.31-.12.41,0,0,0,0,0,0,.02.21.03.43-.01.65.03.12.06.23.1.34.05.17.09.33.14.48.39-.69.84-1.28,1.31-1.85-.39-2.03-.87-4.05-2.9-5.19-.48,1.24.03,2.36.56,3.43ZM88.53,37.33c.4.56-.21.26-.21.48-.19-.38-.29-.88.21-.48ZM89.41,39.65c-.72,1,.02-1.07-.85.02,1.2-2.34.76-.19.85-.02Z"/><path class="cls-1" d="M33.38,3.65c-.35,1.28,1,.95,1.5,1.5.61-.24,1.21-.51,1.8-.75.35-.33.48-.34.33-.13,1.22-.48,2.45-.85,3.83-.72.2-.04.39-.08.59-.11,2.94-.55,5.88-.81,8.79-.8.11,0,.21,0,.32,0,.21.01.41.02.62.03.2.01.42.02.62.03,3.12-.94,5.38,1.55,8.07.85.19.04.37.09.56.14.56.14,1.12.31,1.68.51.2.05.41.11.6.16.01,0,.03,0,.04.01.07-.27.18-.51.28-.75.08-.16-.65-.7-.73-.97.11-.21.97.5,1.13.37.19-.14-.32-.85-.48-1.3-.46-.12-.91-.24-1.37-.35-.2-.05-.4-.09-.6-.14-.38-.07-.75-.13-1.13-.19-.19-.03-.39-.07-.61-.12-1.83-1.43-4.46.35-6.15-.76-.19-.01-.4-.05-.59-.06-2.09-.14-4.19-.15-6.31.07-.12,0-.24.02-.38.03-1.43.12-2.87.31-4.3.56-.17.03-.28.05-.38.07-1.43.48-2.4.75-3.61,1.06-.08.01-.18.03-.29.05-.91.32-1.87.59-2.86.62-.19.06-.4.13-.58.19-.56.19-1.12.4-1.67.61.28.21.47.51.59.85,0,.1.22-.09.7-.56ZM38.34,2.92c.43-.34.58-.38.98-.68-.03.06-1.54,1.3-.98.68Z"/><path class="cls-1" d="M11.52,22.03c.08,0,.17,0,.25-.01.11-.21.23-.42.35-.63-.12.15-.47.49-.6.65Z"/><path class="cls-1" d="M85.19,18.19c1.56.7,1.96,2.15,2.97,3.63.12.16.23.32.35.48.05.07.1.14.14.21.03-.36-.03-.79-.24-1.35.6.35.42-.17.55-.37-.36-.56-.99-1.33-1.43-1.96-.48-.45-.75-.57-1.39-1.25-.29.27-.88.18-1.57-.04.07.08.15.16.22.23.13.14.27.29.41.43Z"/><path class="cls-1" d="M72.16,8.12c.48.25.95.51,1.42.78-.13-.12-.23-.2-.31-.23.3-.43.31-.55.72-.83-.09-.24-.99-1.25-1.42-1.6-.04.57-1.09,0-1.41.2-.19.13.38.98.32,1.22-.03.12-.48-.36-.61-.33-.03,0-.02.06,0,.13.25.12.5.24.74.35.18.1.36.2.54.32Z"/><path class="cls-1" d="M93.65,30.57c.06-.06.16-.08.33-.01-.07.1-.07.35-.1.57.32.85.55,1.75.75,2.64.38-.29.72-.63.91-.97.29-.52-1.04-2.38-3.42-4.65.04.08.08.15.12.23.62.66,1.06,1.4,1.41,2.19Z"/><path class="cls-1" d="M95.05,35.59c.24,1.02.52,1.99.96,2.86.05.19.09.39.14.58.11.47.2.95.3,1.42.18-.35.23-.47.56-1.03.02.14-.28.78-.51,1.31.08.39.14.78.21,1.18.5-.52.03.78.65.04-.16.31-.32.61-.48.92.19,1.23.35,2.44.48,3.6.01.22.02.42.04.62.1,1.51.12,3.01.07,4.51.12-.22.24-.42.33-.55.03.06-.12.38-.33.81,0,.02,0,.05,0,.07,0,.18,0,.36-.02.54.43-.69.66-1.34,1.22-2.37.15-.12.5-.74.57-.64-.2.5-.89,1.75-1.08,2.24.26.06.9-1.02.25.59-.62.63-.56.14-.93.29.66,1.13.6,2.19.31,3.2.02-.01.04-.03.07-.04-.04.08-.09.16-.13.25-.32,1.02-.84,2-1.06,2.97.25-.27.2.22.38.1-.2.31-.39.57-.56.75-.68,3.23-1.69,6.36-3.01,9.35-.09.19-.18.37-.27.55-1.13,1.83-1.42,4.51-3.43,6.28-.11.17-.22.33-.33.5-.56.83-1.14,1.64-1.74,2.43-.12.16-.26.32-.37.48-1.92,1.8-3.44,3.79-5.17,5.59-.08.07-.16.14-.23.21-.45.41-.92.82-1.39,1.21-.08.07-.16.13-.24.2-3.21,2.11-6.05,4.99-9.96,6.33-.1.04-.2.09-.29.13-.58.27-1.18.53-1.78.78-.08.09-.12.11-.15.06-1.34.55-2.73,1.04-4.14,1.48-.23.3-.39.38-.38.11-.27.08-.53.17-.8.24-1.09.3-2.18.57-3.26.79-.01,0-.03,0-.04.01-.13.56-.9,1.67-1.39,2.73.04,0,.07-.01.11-.02,1.06-2.06.38-.4.94-1.17-.22.45-.36.78-.49,1.09.23-.04.46-.09.69-.13.74-1.08.61-.55.59-.12,1.41-.29,2.81-.61,4.2-.99,0-.01.01-.02.02-.03.06-.05.07-.04.07,0,1.29-.35,2.56-.76,3.83-1.22.25-.39.5-.58.59-.63-.08.18-.17.36-.23.5.06-.02.12-.05.18-.07.55-.9.63-.63.94-.9-.35.64-.5.8-.53.66-.02.04-.03.07-.04.1.08-.03.16-.06.24-.09.21-.3.39-.54.2-.08.02,0,.04-.02.07-.03.15-.32.26-.77.61-1.22-.18.5-.3.86-.37,1.13,1.7-.7,3.4-1.52,5.1-2.5-.02-.11.08-.42.41-1.08-.11.93,2.38-4.26,1.74-2.36-.62,1.04-1.62,2.78-1.23,2.62-.07.09-.28.36-.49.57.02,0,.03-.02.05-.03.13-.08.26-.16.39-.23.03-.06.07-.15.13-.27.61-1.19.15.26.87-.95.34-.62.33-.71.31-.77.69-1.28.52-.48.48-.21-.36.67-.24.16-.53.66-.12.37-.27.79-.28.96.07-.05.15-.1.22-.14.13-.32.11-.4.47-1.07.67-1.02-.05.45-.17.85.27-.28.64-1.3.92-1.85-.16.17.04-.53-.37.27.68-1.41.7-.36.67-.12-.5.94-.44.52-.76,1-.49,1.03.34-.3,0,.42.03-.02.05-.04.08-.05.29-.51.67-1.25.94-1.69.42-.13,1.16-.47,1.52-.6-.27.48-.39.7-.49.9.05-.03.1-.05.16-.08.07-.14.14-.28.22-.42-.43,1.05.59-.9.6-.62-.24.47-.36.66-.5.88.05-.02.09-.05.14-.07.12-.25.26-.52.39-.79.14.12.35.16.59.16.24-.21.46-.46.62-.78.17-.13.33-.26.48-.4.24-.2.47-.4.7-.61.08-.07.16-.14.24-.22.53-.74,1.45-1.24,2.24-1.88.29-.43.47-.58.5-.45.3-.31.56-.66.73-1.09.07-.08.15-.16.23-.24,1.17-1.29,2.27-2.64,3.3-4.04-.14.13-.28.27-.41.35,1.26-2.19.2-.78.47-1.62.75-1.29.06.42,1.02-1.33-.11.69-.06.8.63-.14.54-1.14-.42.46,0-.46,1.81-3.28,1.13-2.35-.1-.52.81-1.23,1.58-2.9,2.07-4.05.3-.23-.27.85-.59,1.56.4-.64.89-1.48,1.14-1.74.02.14-.84,1.63-.66,1.52.43-.6,1.81-3.28,1.6-2.43-.28.52-.18.07-.49.68-.28.93.29-.17.91-1.39.11.12-.19.58-.69,1.5.35-.63.51-.79.7-1.02.4-.9.76-1.81,1.08-2.73,0,0,0,0,0,0,0,0,0-.01.01-.02.05-.13.09-.27.14-.4-.42.86-.86,1.69-.69,1.54-.3.8-.75,1.24-.53.66-.25.49-.51.98-.77,1.46,0-.2-.43.63-.37.27.43-1,1.47-2.93,1.77-3.74.21-.36-.06.63-.32,1.23-.56,1.14-.36.38-1.03,1.8-.14.61.87-1.64.72-1.02.54-1.02.85-1.82,1.46-2.93.3-.99.56-1.98.76-2.97.06-.19.11-.41.16-.6.1-.35.18-.7.26-1.05-.02-.01-.04-.01-.09.02.06-.11.11-.2.16-.3.04-.18.09-.35.13-.53-.12.24-.24.5-.36.78.37-1.03,0-.17-.25-.13-.19.36-.11.31-.12.4-.77,1.45.03-.33-.53.66.21-.59.5-.88.92-1.85-.02-.01-.05-.03-.07-.04-.07.04-.38.65-.61,1.08-.16-.2.76-1.47,1.34-2.57-.2.47-.16.5-.04.39.06-.31.14-.62.19-.94.04-.2.08-.41.12-.6.7-2.13.93-4.31.92-6.55-.3.41-.64.76-.41.18.15-.23.3-.43.41-.53-.01-1.03-.08-2.08-.17-3.14-.35.52-.5.52-.69.64.21-.41.43-.82.64-1.22-.17-1.87-.42-3.78-.62-5.73-.03-.21-.07-.41-.1-.62-.23-1.31-.51-2.62-.85-3.93-.45-.66-1.04-1.42-1.8-2.32-1.27-.85-1.28,0-1.68.3ZM65.35,95.73c-.57,1.37-.37.21-.26-.13.97-1.69-.16.81.26.13ZM66.42,97.22c.07-.38.6-1.46,1.2-2.64.24-.09-.8,1.76-1.2,2.64ZM75.15,91.98c-.33.98-1.18,1.79-.15-.08.35-.46-.36,1.02.15.08ZM82.86,84.8c-.08.33-.74.85-.45.23.76-1.38.29-.19.45-.23ZM88.55,78.44c-.14.13-.63,1.14-.53.66.86-1.59.69-.62,1.17-1.25-.16.53-.75,1.34-.73,1.48-.21.2-.81.77.09-.88ZM88.74,79.94c-.16.31-.2.34-.23.35-.11.07.12-.38.08-.42.47-.74.65-1.04,1.19-2.18.4-.3-1.09,2.21-1.04,2.26ZM90.25,78.4c-.15.07-.44.51-.45.23.53-.95.57-.69,1.14-1.74-.08.27-.34.82-.7,1.51ZM92.3,73.86c.54-.57.03.52.44.23-.2.09-1.45,1.85-.44-.23ZM93.28,72.51c-.13.24-.25.49-.38.73-.39.57-.03-.06-.15-.08.13-.25.26-.49.38-.73.08.08.39-.57.15.08ZM95.62,68.13c-.69,1.16.61-1.51-.34.29.22-.53-.12-.27.47-1.16-.39.39-.75.86-.9.93.6-1.17,1.96-2.57.77-.06ZM96.23,65.64c-.32.5-.49.63-.6.62.81-1.49.49-.68.6-.62ZM97.89,63.71c.07.09-.25.76.34-.29,0,.08-.16.39-.12.4-.3.6-.36.61-.61,1.08-.03-.03.21-.46.35-.75-.07-.03-.57.98-.53.66.19-.37.38-.73.57-1.1ZM98.78,59.97c-.25.41-.56.95-.99,1.81-.98,1.2-.61.12-.96-.03.23-.33.74-.83.45-.23.18-.22.48-.75.84-1.43-.69,1.61,1.13-1.59.66-.12ZM98.63,57.83c-.44-.61-.31-.91-.04-.69.34.54.29.77.04.69ZM98.75,55.76c-1.33,2.16-.3-.4-1.35,1.16.25-.49.51-.98.77-1.46-.08.82.67-.49.58.31ZM98.55,50.04c-.31.44-.7.85-.45.23.31-.44.7-.85.45-.23ZM97.52,46.23c.33-.49.87-1.27.6-.62-.49.94-.5.66-.6.62ZM99.18,51.31c.07.04.15.08.22.11-.76,1.48-1.41,2.06-.22-.11ZM99.87,51.67c-.74,1.46-.43.33-.68.58.53-.94.99-1.39.68-.58ZM99.88,49.8c-.57,1.08-.82,1.15-.6.62.49-.93.5-.67.6-.62ZM99.58,48.65c.06-.09.11-.19.17-.31-.07.13-.13.24-.17.31-.6.99-.9.74-.34-.58.18.01,1.04-1.11.28.61,0,.04.02.01.05-.04ZM97.6,42.54c-.85,1.63-.35.16.2-.83.25-.21-.46,1.05-.2.83Z"/><path class="cls-1" d="M12.14,21.31s.02,0,.03,0c.54-.95,1.18-1.82,2.17-2.45.14-.15.28-.31.41-.46.14-.15.27-.3.41-.45.14-.15.28-.31.42-.46.62-.86,1.3-1.54,2-2.15.14-.12.28-.24.45-.38,1.68-1.32,2.86-2.69,4.8-3.74.15-.11.31-.21.46-.32,2.38-1.63,4.94-3.05,7.65-4.24.01-.01.02-.02.03-.04.29-.26.31-.2.3-.1.53-.23,1.06-.45,1.59-.65.18-.07.36-.14.54-.21.24-.07.48-.14.71-.23-.64-.15-1.13-.44-1.63-.71-.65-.34-1.34-.63-2.4-.56-1.2.52-2.37,1.09-3.51,1.69-.18.09-.35.19-.52.28-.77.34-1.5.72-2.2,1.13-.48.99.89.04.58.85-.87.97-1.65,1.85-2.79,2.87-1.41.49-1.09-.88-2.41-.36-.64.52-1.3,1.06-1.97,1.6-.15.13-.3.27-.44.41-.64.61-1.23,1.25-1.79,1.9-.6,1.36-2.49,3.93-1.47,3.71-.91,1.06-1.8,2.09-2.67,3.11.38-.06.46.34,1.27-.06Z"/><path class="cls-1" d="M58.29,98.57c.11,0,.65-1.07,1.15-2.01-.07.02-.14.04-.21.06-.2.08-.39.16-.58.23-.02.02-.04.03-.05.02-1.37.51-2.64.78-4.06.46-.2.01-.41.02-.63.02-.48.04-.96.06-1.44.09-.11.22-.22.46-.35.71-.12.06,0-.24.23-.7-2.04.1-4.06.07-6.06-.09-.1,0-.2-.02-.32-.02-1.85.08-4.05-.35-5.6-.82-.19-.04-.41-.1-.6-.14-.58-.13-1.16-.27-1.74-.42-.19-.05-.38-.1-.59-.15-2.75-.44-4.73-1.97-7.21-2.66-.17-.08-.37-.16-.55-.25-.71-.34-1.42-.7-2.11-1.07-.18-.1-.35-.19-.54-.29-6.28-3.22-11.28-8.07-15.28-13.5-.06-.08-.12-.17-.2-.25-2.57-3.57-4.67-7.54-6.2-11.87-.04-.1-.07-.2-.11-.3-.46-.95-.6-1.43-.85-2.29-.04-.15-.07-.29-.09-.45.02-1.71-.52-3.64-1.07-5.25-.02-.1-.04-.21-.05-.31-.02-.1-.03-.2-.05-.31-.02-.1-.03-.21-.05-.31-1.13-2.15-.7-4.35-.49-6.35,0-.11.01-.22.03-.36.01-6.63,1.43-13.08,4.03-18.98-.5.4-.37-.09-.15,0,.05-.01.23-.2.22-.21.02-.01.03-.03.04-.04,1.25-2.79,2.76-5.45,4.51-7.94,0,0-.01,0-.02,0-.25.14-.88.73-1.38,1.15.33-.92-.88-.6-.95-1.26-.53.47-1.4,1.32-1.92,1.9-.16.28-.32.56-.48.84,1.23-.97.14.58,1.12-.08-1.04,1.09-.38-.11-1.28.69.04-.12.21-.35.36-.57-.06.01-.25.16-.38.25-.45.81-.89,1.64-1.29,2.48.42-.2.93-.49.93-.28,0,.28-1.39,1.92-.8,1.67-1.45,1.3-.68.32-.84.26-.01,0-.03,0-.05,0C1.51,36.14,0,43.04,0,50.11c0,.11.01.22.02.33,1.03,6.41.36,13.37,3.97,19.18.04.11.09.21.13.3,1.77,4.09,4.04,7.86,6.73,11.23.13.16.26.32.39.48,3.89,5.12,8.97,8.39,14.41,12.07.18.1.36.21.54.31,2.07,1.12,4.22,2.1,6.43,2.93.18.07.37.14.57.2,5.51,1.26,10.93,3.91,16.9,2.99.11,0,.22-.01.33-.02.9,0,1.81-.04,2.72-.09.18-.01.36-.02.55-.04,1.33-.19,2.64-.4,3.94-.63.02-.06.03-.12.06-.2.75-1.51.87-1.17.64-.6ZM6.85,30.37c-.83.89-.83.57-1,.6.6-.5.53-.25,1-.6ZM5.77,29.46c-.18.21-.48.51-.86.88-.01-.03-.03-.06-.04-.09.57-.57.94-.91.91-.79ZM4.02,33.92c-.66.49.3-.67-.39-.17,1.09-.89.42,0,.39.17ZM3.6,33.7c-.58.48-.5.22-.79.37.71-.63.59-.32.79-.37Z"/><path class="cls-1" d="M91.87,77.67c.53-.72,1.05-1.47,1.53-2.24.12-.25.22-.47.16-.44-.5.8-1.17,1.71-1.69,2.68Z"/><path class="cls-1" d="M93.12,74.76c-.43.93.53-.68,0,.46-.05,0-.27.45-.16.39.37-.69.38-.83.73-1.49-.06-.1-.25.11-.57.64Z"/><path class="cls-1" d="M75.79,92.99c.06-.04.13-.08.19-.11.06-.21-.07-.05-.19.11Z"/><path class="cls-1" d="M63.57,3.99c.11.28.17.5.19.67.7.21,1.39.44,2.08.68-.57-.53-.78-.59-1.66-1.72,0,.15-.24-.1-.36-.14-.22.03.29.31.78.94-1.33-1.31-.02.51-1.03-.44Z"/><path class="cls-1" d="M68.36,6.32s.04.01.06.02c-.05-.85-.11-1.68.25-1.92-.44-.54-.79-.91-1.12-1.22-.48-.18-.96-.35-1.45-.52,0,.04-.01.08-.01.13.1.29.6.57.78.93-.38.38-.32,1.19-.66,1.73.54.19,1.07.4,1.6.61.19.08.37.15.55.23Z"/><path class="cls-1" d="M90.82,51.44s-.49.14-1.39.39c-.38.5-.9,1.31-.66.57.1-.18.19-.33.26-.45-.66.18-1.49.41-2.46.69-.16.04-.32.09-.49.14-3.62,1.15-7.96,2.36-11.68,3.26-.13.04-.27.08-.41.11-3.26.91-6.83,1.91-10.55,2.94-.13.04-.26.08-.39.11-1.36.51-3.29,1.05-4.76,1.33-.14.03-.28.07-.41.11-.4.11-.81.22-1.21.34-.13.04-.27.08-.41.12-5.19,1.58-10.51,3.07-16,4.46-.13.04-.26.07-.38.11-.9.25-1.78.5-2.65.74-.14.04-.29.08-.43.12-2.14.74-4.55,1.41-6.94,1.94-.12.03-.25.07-.37.1-.36.1-.72.2-1.07.3-.12.03-.23.07-.35.1-2.12.73-4.05,1.27-5.93,1.65-.1.03-.21.06-.3.08-4.34,1.21-7.01,1.96-7.01,1.96l.4,1.45s2.67-.75,7.01-1.96c.18-.05.37-.1.55-.15,5-1.26,9.21-2.95,14-3.91.14-.04.28-.07.41-.11.85-.24,1.72-.48,2.6-.73.13-.03.25-.07.38-.11,5.97-1.53,11.28-3.01,16.91-4.72.14-.04.28-.08.41-.11.13-.04.26-.07.4-.11,4.19-1.03,9.02-2.38,13.31-3.71.12-.03.24-.07.36-.1,1.21-.34,2.39-.67,3.53-.98.1-.03.21-.07.31-.09,3.18-2.31,7.45-1.94,10.8-3.01.2-.05.39-.11.57-.16,2.79-.78,4.43-1.24,4.43-1.24l-.4-1.45ZM84.61,53.96c-.53.88-.46.58-.41.25.53-1,.63-.78.41-.25ZM89.35,52.7c.52-.93.78-1.21.83-.97-.74,1.47-.69.98-.83.97Z"/><path class="cls-1" d="M65.43,31.47c-.13.03-.26.07-.39.11-.65.18-1.31.37-1.98.55-.13.04-.27.08-.41.12-7.6,2.19-15.14,4.33-22.69,6.44-.21.07-.42.15-.61.2-3.7,2.07-7.97,1.7-11.59,3.18-.19.05-.41.11-.6.17-3.31.91-6.62,1.82-9.95,2.72-.1.03-.21.05-.35.06-5.51,1.54-9.01,2.52-9.01,2.52l.4,1.45s3.26-.91,8.42-2.35c.11-.03.22-.06.32-.09,3.71-1,7.45-2.02,11.21-3.05.2-.05.4-.11.6-.18,3.95-1.55,7.95-2.15,11.91-3.29.2-.06.4-.11.6-.17,6.17-1.72,12.35-3.47,18.47-5.23.19-.06.39-.11.58-.17,7.91-1.58,14.75-5.05,22.53-6.33.18-.04.34-.08.48-.12.56-.16.85-.24.85-.24l-.4-1.45s-.06.02-.17.05c-.11.03-.27.08-.49.14-5.77,1.75-11.08,3.23-17.13,4.82-.2.04-.4.09-.6.13Z"/><path class="cls-1" d="M56.84,77.89s-.36.1-.9.25c-.09.03-.19.05-.29.09-1.31,1.75-3.29.22-4.61,1.11.13.48.4,1.45.56,1.97.03.1.06.21.08.31.26.94.56,2,.76,2.72.05.21.09.41.13.55.97,1.55.3-.87,1.02.11.18-.05.39-.12.6-.18,1.7-.48,4.26-1.19,4.26-1.19l-1.6-5.75Z"/><path class="cls-1" d="M64.4,75.78l-5.75,1.6,1.6,5.75,2.88-.8c.12-.03.25-.07.38-.1.74-.33,1.71-.6,2.51-.83,0,0-.04-.13-.13-.39-.25-1.58-.65-3.03-1.23-4.32-.05-.18-.1-.35-.13-.48-.07-.27-.12-.43-.12-.43Z"/><path class="cls-1" d="M60.35,90.46c-.16.31-.33.62-.49.93l.7-.19-.21-.74Z"/><path class="cls-1" d="M58.95,85.45s-1.96.55-3.59,1c-.17.04-.29.08-.41.11-.79.23-1.89.02-2.24.64-.08,1.57,1.39,3.21,1.94,5.1.11-.2.22-.4.32-.6.02.08-.1.35-.29.7.07.25.13.42.13.42l3.9-1.09c.27-.52.56-1.08.71-1.43.11-.03-.22.68-.59,1.4l.89-.25c.17-.34.39-.74.59-1.11l-1.36-4.87Z"/><path class="cls-1" d="M67.02,85.16c-.03-.11-.06-.22-.09-.33.06-.57-.21-1.54-.34-2.02-.35.62-.83.75-1.53.9-.11.03-.22.07-.37.14-1.68.47-3.93,1.1-3.93,1.1,0,0,.63,2.25,1.1,3.93.03.11.06.22.09.33.32.53.59,1.5.59,1.5.05,0,.11,0,.16,0,.08-.1.18-.23.29-.41-.04.12-.1.26-.16.4,1.14-.08,2.05-.4,3.03-.78.76-1.69,0-.9.27-1.71.72-.62,1.11-.47,1.51-.14.07.06.16.11.24.16.05-.49.18-1.03-.47-1.63-.01-.05-.03-.1-.04-.15-.37.64-.25.21-.07-.25-.1-.34-.19-.69-.28-1.01ZM62.75,85.96c.06.03.12.06.18.1-.53,1.16-.83,1-.18-.1ZM64.01,87.55c-.35-.26-.01-.61.38-.27-.89,1.68-.35.29-.38.27ZM64.69,90.24c-.19-.03.47-.9.92-1.85-.87.44-1.2.19-1.2-.63,1.25-1.5.95.34,1.73-.03-.5.86-1,1.74-1.45,2.51Z"/><path class="cls-1" d="M65.9,89.89c.08-.03.17-.07.26-.1.07-.13.16-.28.29-.5-.05-.03-.1-.05-.15-.08-.05.03-.22.35-.4.68Z"/><path class="cls-1" d="M66.74,88.98c-.18.27-.3.51-.41.74.06-.03.13-.05.19-.08.2-.39.33-.73.22-.66Z"/><path class="cls-1" d="M32.79,13.92c.03.12.07.24.1.36.22.83.36,1.32.63,2.28,1.31-.89,2.9-.81,4.6-1.04.11-.03.21-.05.33-.08.54-.15.9-.25.9-.25l-1.6-5.75-5.75,1.6s.4,1.44.8,2.88Z"/><rect class="cls-1" x="40.24" y="8.02" width="5.97" height="5.97" transform="translate(-1.37 12.02) rotate(-15.59)"/><path class="cls-1" d="M35.7,24.35s.81-.23,1.82-.51c.11-.03.24-.06.35-.1,1.18-.41,2.28-.19,3.29-1.16,0,0,0-.14-.02-.34-.08-1.03-.35-2-.67-3.02-.04-.13-.08-.27-.12-.42-.28-1.01-.51-1.82-.51-1.82l-5.75,1.6,1.6,5.75Z"/><path class="cls-1" d="M43.66,22.12c.13-.04.31-.08.5-.13,1.62-.45,4.85-1.35,4.85-1.35,0,0-.28-1-.6-2.16-.03-.12-.07-.23-.1-.36-.86-3.88-1.9-2.03-5.73-1.87-.18.05-.36.09-.49.12-.27.07-.43.12-.43.12,0,0,.34,1.21.7,2.52.03.12.07.24.1.36.41.83-.77,2.2,1.2,2.75Z"/></svg>